# xmcd CD database file
#
# Track frame offsets:
#	150
#	11268
#	31437
#
# Disc length: 590 seconds
#
# Revision: 0
# Processed by: cddbd v1.5.1PL2 Copyright (c) Steve Scherf et al.
# Submitted via: CDex 1.60beta1
#
DISCID=16024c03
DTITLE=CRAZE - NEW SONG
DYEAR=2006
DGENRE=Rock
TTITLE0=NEW SONG
TTITLE1=カムカムエブリバデー
TTITLE2=Be Rhythm (live version)
EXTD=YEAR: 2006
EXTT0=
EXTT1=
EXTT2=
PLAYORDER=
